<svg width="26" height="20" viewBox="0 0 26 20" fill="none" xmlns="http://www.w3.org/2000/svg">
<path d="M10.5379 19.6874C11.5553 19.6874 12.38 18.8626 12.38 17.8453C12.38 16.8279 11.5553 16.0032 10.5379 16.0032C9.52054 16.0032 8.6958 16.8279 8.6958 17.8453C8.6958 18.8626 9.52054 19.6874 10.5379 19.6874Z" fill="#333333"/>
<path d="M19.3242 19.6864C20.341 19.6864 21.1653 18.8621 21.1653 17.8453C21.1653 16.8285 20.341 16.0043 19.3242 16.0043C18.3074 16.0043 17.4832 16.8285 17.4832 17.8453C17.4832 18.8621 18.3074 19.6864 19.3242 19.6864Z" fill="#333333"/>
<path d="M20.2442 13.8853H9.84C9.40632 13.8853 9.01684 13.6189 8.85895 13.2147L4.52842 2.10526H1.05263C0.471579 2.10526 0 1.63368 0 1.05263C0 0.471579 0.471579 0 1.05263 0H5.24737C5.68105 0 6.07053 0.266316 6.22842 0.670526L7.40105 3.67895H23.4021C23.7495 3.67895 24.0747 3.85053 24.2716 4.1379C24.4674 4.42526 24.5095 4.79053 24.3832 5.11474L21.2253 13.2158C21.0684 13.6189 20.6789 13.8853 20.2442 13.8853ZM10.5589 11.78H19.5253L21.8621 5.78421H8.22211L10.5589 11.78Z" fill="#333333"/>
</svg>
