<svg width="20" height="19" viewBox="0 0 20 19" fill="none" xmlns="http://www.w3.org/2000/svg">
<g clip-path="url(#clip0)">
<path d="M10.0012 18.0294C9.68353 18.0294 9.38 17.9012 9.15765 17.6729C8.93882 17.4494 3.79529 12.1576 1.92118 10.1271C0.701177 8.80941 0 7.11647 0 5.48706C0 2.40941 2.48588 0 5.66118 0C7.40118 0 8.89412 0.735294 10.0012 2.10941C11.1082 0.735294 12.6 0 14.34 0C17.5141 0 20 2.40941 20 5.48706C20 7.12353 19.2788 8.86236 18.0694 10.14C15.96 12.3729 10.8482 17.6706 10.8482 17.6706C10.6271 17.9 10.3 17.9824 10.0012 18.0294ZM5.66118 2.35294C3.77412 2.35294 2.35294 3.7 2.35294 5.48706C2.35294 6.51647 2.83765 7.65412 3.65059 8.53177C5.05294 10.0518 8.41882 13.5318 9.99882 15.1624C11.5376 13.5659 14.7859 10.1894 16.36 8.52353C17.1659 7.67059 17.6471 6.53647 17.6471 5.48706C17.6471 3.7 16.2259 2.35294 14.34 2.35294C12.9 2.35294 11.8035 3.19647 11.08 4.86118C10.8941 5.29177 10.4706 5.56941 10.0012 5.56941C9.53294 5.56941 9.10941 5.29177 8.92235 4.86235C8.19882 3.19647 7.10118 2.35294 5.66118 2.35294Z" fill="#333333"/>
</g>
<defs>
<clipPath id="clip0">
<rect width="20" height="18.8235" fill="white"/>
</clipPath>
</defs>
</svg>
