<svg width="18" height="20" viewBox="0 0 18 20" fill="none" xmlns="http://www.w3.org/2000/svg">
<path d="M8.61003 8.42353C6.24123 8.42353 4.31403 6.53412 4.31403 4.21176C4.31403 1.88941 6.24123 0 8.61003 0C10.9788 0 12.9048 1.88941 12.9048 4.21176C12.9048 6.53412 10.9776 8.42353 8.61003 8.42353ZM8.61003 2.18941C7.47243 2.18941 6.54723 3.09647 6.54723 4.21176C6.54723 5.32706 7.47243 6.23412 8.61003 6.23412C9.74643 6.23412 10.6716 5.32706 10.6716 4.21176C10.6716 3.09647 9.74643 2.18941 8.61003 2.18941Z" fill="#333333"/>
<path d="M16.0416 19.7588C16.0344 19.7588 16.026 19.7588 16.0176 19.7588H1.2C0.5376 19.7588 0 19.2317 0 18.5823C0 13.7635 3.8616 9.84351 8.6088 9.84351C13.2732 9.84351 17.0832 13.6282 17.214 18.3306C17.232 18.4117 17.2416 18.4964 17.2416 18.5823C17.2416 19.2317 16.704 19.7588 16.0416 19.7588ZM2.5056 17.4059H14.712C14.1732 14.4447 11.6412 12.1964 8.6088 12.1964C5.5764 12.1964 3.0444 14.4447 2.5056 17.4059Z" fill="#333333"/>
</svg>
