<svg width="20" height="20" viewBox="0 0 20 20" fill="none" xmlns="http://www.w3.org/2000/svg">
<path d="M18.9329 17.2718L13.8129 12.1506C14.74 10.8859 15.2941 9.33294 15.2941 7.64706C15.2941 3.43059 11.8635 0 7.64706 0C3.43059 0 0 3.43059 0 7.64706C0 11.8635 3.43059 15.2941 7.64706 15.2941C9.33176 15.2941 10.8847 14.74 12.1494 13.8141L17.2694 18.9353C17.4988 19.1647 17.8 19.28 18.1012 19.28C18.4024 19.28 18.7035 19.1647 18.9329 18.9353C19.3929 18.4753 19.3929 17.7306 18.9329 17.2718ZM2.35294 7.64706C2.35294 4.72824 4.72824 2.35294 7.64706 2.35294C10.5659 2.35294 12.9412 4.72824 12.9412 7.64706C12.9412 9.10235 12.3494 10.4224 11.3953 11.38C11.3929 11.3835 11.3894 11.3847 11.3859 11.3871C11.3835 11.3906 11.3824 11.3941 11.38 11.3965C10.4224 12.3506 9.10235 12.9412 7.64706 12.9412C4.72824 12.9412 2.35294 10.5659 2.35294 7.64706Z" fill="#333333"/>
</svg>
