<svg width="13" height="11" viewBox="0 0 13 11" fill="none" xmlns="http://www.w3.org/2000/svg">
<path d="M11.0251 5.1561H0.436982C0.242161 5.1561 0.0840454 5.30975 0.0840454 5.49984C0.0840454 5.68994 0.242161 5.84359 0.436982 5.84359H11.0251C11.2199 5.84359 11.378 5.68994 11.378 5.49984C11.378 5.30975 11.2199 5.1561 11.0251 5.1561Z" fill="#333333"/>
<path d="M6.18746 10.8993C6.25628 10.9663 6.34663 11 6.43699 11C6.52734 11 6.61769 10.9663 6.68651 10.8993L11.9806 5.74307C12.1186 5.60867 12.1186 5.39142 11.9806 5.25701L6.68651 0.100804C6.54851 -0.0336013 6.32546 -0.0336013 6.18746 0.100804C6.04946 0.235209 6.04946 0.452458 6.18746 0.586863L11.232 5.50004L6.18746 10.4132C6.04946 10.5476 6.04946 10.7652 6.18746 10.8993Z" fill="#333333"/>
</svg>
