<svg width="12" height="11" viewBox="0 0 12 11" fill="none" xmlns="http://www.w3.org/2000/svg">
<path d="M1.05898 5.1561H11.6471C11.8419 5.1561 12 5.30975 12 5.49984C12 5.68994 11.8419 5.84359 11.6471 5.84359H1.05898C0.864157 5.84359 0.706041 5.68994 0.706041 5.49984C0.706041 5.30975 0.864157 5.1561 1.05898 5.1561Z" fill="#333333"/>
<path d="M5.89659 10.8993C5.82776 10.9663 5.73741 11 5.64706 11C5.55671 11 5.46636 10.9663 5.39753 10.8993L0.103491 5.74307C-0.0345073 5.60867 -0.0345073 5.39142 0.103491 5.25701L5.39753 0.100804C5.53553 -0.0336013 5.75859 -0.0336013 5.89659 0.100804C6.03458 0.235209 6.03458 0.452458 5.89659 0.586863L0.852068 5.50004L5.89659 10.4132C6.03458 10.5476 6.03458 10.7652 5.89659 10.8993Z" fill="#333333"/>
</svg>
