<svg width="9" height="7" viewBox="0 0 9 7" fill="none" xmlns="http://www.w3.org/2000/svg">
<path d="M0.0899267 1.41678L0.540797 0.965944C0.600875 0.90574 0.670082 0.875732 0.748322 0.875732C0.826373 0.875732 0.895549 0.90574 0.955626 0.965944L4.49995 4.51008L8.04412 0.966039C8.10423 0.905835 8.1734 0.875827 8.25155 0.875827C8.32973 0.875827 8.3989 0.905835 8.45898 0.966039L8.90979 1.41691C8.96999 1.47699 9 1.54616 9 1.62434C9 1.70245 8.9699 1.77163 8.90979 1.83171L4.70738 6.03421C4.64731 6.09432 4.5781 6.12436 4.49995 6.12436C4.42181 6.12436 4.35273 6.09432 4.29268 6.03421L0.0899267 1.83171C0.0298491 1.7716 0 1.70242 0 1.62434C0 1.54616 0.0298491 1.47699 0.0899267 1.41678Z" fill="#333333"/>
</svg>
